#!OML:ASF E:\Steps\Project 1\Capture day 1\Session 2\Subject.ASF
:FULLY-SPECIFIED
:DEGREES
177
root 9.65292 20.0139 9.63872 21.3068 71.0035 353.944
lowerback -34.3247 -9.32117 -3.40834
upperback -7.43235 -10.2014 1.70428
thorax 9.7956 -4.52126 -0.330717
lowerneck 0.675127 0.707355 -4.91011
upperneck 9.11051 0.645001 6.34952
head 2.78959 0.379061 2.97628
rclavicle 2.5345e-014 -5.40694e-014
rhumerus -45.6503 41.6417 -110.243
rradius 104.486
rwrist -21.9778
rhand 18.3991 -45.3443
rfingers 7.12502
rthumb 43.0409 -69.5757
lclavicle 2.5345e-014 -5.40694e-014
lhumerus -39.7946 -46.4311 84.4175
lradius 115.128
lwrist 8.04185
lhand -21.8069 -35.4362
lfingers 7.12502
lthumb 4.59519 -5.50605
rfemur -47.4983 8.10434 21.022
rtibia 25.3276
rfoot 18.9476 7.21526
rtoes -31.6271
lfemur -36.4849 -3.93894 -23.6372
ltibia 33.2635
lfoot 30.7854 9.55811
ltoes -52.141
178
root 9.67452 20.2777 9.59334 22.825 64.6071 356.581
lowerback -33.8273 -8.73163 -3.50866
upperback -7.36969 -9.57862 2.08653
thorax 9.74669 -4.27859 0.398673
lowerneck 0.745153 0.646232 -4.62577
upperneck 9.12653 0.548788 6.31769
head 2.78648 0.335937 2.90934
rclavicle 8.73162e-014 -1.11319e-014
rhumerus -45.0558 42.673 -110.497
rradius 104.202
rwrist -23.3668
rhand 19.7017 -46.3583
rfingers 7.12502
rthumb 44.2571 -70.1446
lclavicle 8.73162e-014 -1.11319e-014
lhumerus -39.3701 -45.6019 82.9192
lradius 115.731
lwrist 7.92541
lhand -22.0378 -35.5041
lfingers 7.12502
lthumb 4.37225 -5.56926
rfemur -47.1678 8.19824 21.5511
rtibia 26.6476
rfoot 19.8716 6.56689
rtoes -32.0803
lfemur -36.4768 -2.46951 -25.0105
ltibia 34.5593
lfoot 31.3763 6.74561
ltoes -53.6225
179
root 9.68741 20.5235 9.54867 23.7664 58.0843 358.791
lowerback -33.1009 -8.13605 -3.88352
upperback -7.18772 -8.85791 2.35869
thorax 9.73771 -3.99934 1.20155
lowerneck 0.578598 0.536133 -4.52176
upperneck 9.15878 0.388899 6.38312
head 2.83821 0.260721 2.91232
rclavicle 7.22582e-014 -8.94531e-015
rhumerus -44.058 43.549 -110.331
rradius 103.784
rwrist -25.1456
rhand 20.7797 -47.2883
rfingers 7.12502
rthumb 45.2607 -70.6844
lclavicle 7.22582e-014 -8.94531e-015
lhumerus -38.5072 -44.777 80.8668
lradius 116.294
lwrist 7.83275
lhand -22.1807 -35.7051
lfingers 7.12502
lthumb 4.2343 -5.76741
rfemur -46.8924 8.29814 21.7204
rtibia 28.1087
rfoot 20.7562 7.27468
rtoes -33.7842
lfemur -36.6267 -1.27096 -26.4064
ltibia 36.1544
lfoot 31.0753 6.00819
ltoes -52.9293
180
root 9.69597 20.7601 9.48791 23.9991 51.6452 360.327
lowerback -32.1087 -7.47073 -4.00006
upperback -6.97622 -8.12752 2.48282
thorax 9.58002 -3.71278 1.74081
lowerneck 0.263659 0.479303 -4.47696
upperneck 9.18369 0.306073 6.44587
head 2.91065 0.223683 2.92851
rclavicle -4.09687e-014 -8.69062e-015
rhumerus -42.9423 44.1958 -110.204
rradius 103.151
rwrist -26.8157
rhand 21.6949 -48.0641
rfingers 7.12502
rthumb 46.1107 -71.1124
lclavicle -4.09687e-014 -8.69062e-015
lhumerus -38.1874 -43.9051 78.4063
lradius 117.272
lwrist 7.6786
lhand -22.1483 -35.8466
lfingers 7.12502
lthumb 4.26558 -5.90958
rfemur -46.6174 8.15678 22.0182
rtibia 29.4638
rfoot 20.6876 6.0057
rtoes -27.6887
lfemur -36.8366 0.315449 -27.7622
ltibia 37.5521
lfoot 31.024 5.29798
ltoes -52.7723
181
root 9.71511 20.988 9.40992 23.6753 45.6619 361.426
lowerback -30.6621 -6.84105 -3.90364
upperback -7.05971 -7.52467 2.46038
thorax 9.57177 -3.49907 2.17107
lowerneck -0.123106 0.413139 -4.27374
upperneck 9.18482 0.211767 6.47177
head 2.98801 0.18645 2.90224
rclavicle 2.03257e-014 8.34896e-015
rhumerus -41.7504 44.5515 -110.021
rradius 102.318
rwrist -28.1955
rhand 22.4309 -49.1357
rfingers 7.12502
rthumb 46.7925 -71.8928
lclavicle 2.03257e-014 8.34896e-015
lhumerus -38.0898 -43.0028 75.7705
lradius 118.212
lwrist 7.73609
lhand -22.0568 -35.8247
lfingers 7.12502
lthumb 4.3539 -5.88944
rfemur -45.9892 7.5186 22.5578
rtibia 30.3331
rfoot 20.5547 6.04607
rtoes -27.268
lfemur -36.7941 1.55054 -28.7307
ltibia 38.8054
lfoot 31.2198 6.62181
ltoes -50.8849
182
root 9.73575 21.2063 9.35241 23.4794 39.8467 362.845
lowerback -29.632 -6.514 -4.49203
upperback -6.62862 -7.0548 2.47973
thorax 9.60171 -3.33758 2.75956
lowerneck -0.509468 0.309302 -3.97339
upperneck 9.17035 0.0642706 6.47854
head 3.06248 0.125834 2.84931
rclavicle -8.39865e-015 2.5842e-014
rhumerus -40.689 44.6325 -109.87
rradius 101.341
rwrist -28.9906
rhand 22.4555 -49.9569
rfingers 7.12502
rthumb 46.8153 -72.7041
lclavicle -8.39865e-015 2.5842e-014
lhumerus -37.8677 -42.105 72.9017
lradius 118.856
lwrist 7.96757
lhand -22.3053 -35.7761
lfingers 7.12502
lthumb 4.11399 -5.83611
rfemur -45.2287 7.02508 22.4425
rtibia 30.7543
rfoot 20.3115 6.126
rtoes -29.0099
lfemur -36.6845 2.22388 -29.5575
ltibia 40.2591
lfoot 30.6169 11.4695
ltoes -43.86
183
root 9.76836 21.4137 9.28403 23.0967 34.336 364.129
lowerback -28.443 -6.28009 -4.91143
upperback -6.34746 -6.75157 2.47057
thorax 9.35698 -3.24054 3.16853
lowerneck -0.698828 0.271571 -3.8584
upperneck 9.14228 0.00744688 6.47739
head 3.091 0.10091 2.8276
rclavicle -6.1176e-014 2.06736e-014
rhumerus -40.2056 44.4947 -110.048
rradius 100.235
rwrist -28.9911
rhand 21.8387 -50.0467
rfingers 7.12502
rthumb 46.2439 -73.039
lclavicle -6.1176e-014 2.06736e-014
lhumerus -38.3623 -41.0008 70.1841
lradius 119.435
lwrist 8.28443
lhand -22.6252 -35.6623
lfingers 7.12502
lthumb 3.80507 -5.71656
rfemur -44.3256 6.34761 22.2621
rtibia 30.8829
rfoot 20.5845 6.41845
rtoes -30.1473
lfemur -36.568 2.65706 -30.2329
ltibia 41.5547
lfoot 29.2979 16.3214
ltoes -36.8303
184
root 9.80768 21.6152 9.22024 22.5443 28.8746 365.095
lowerback -27.4838 -5.93128 -5.22473
upperback -5.9268 -6.32314 2.50788
thorax 9.35221 -3.08303 3.59028
lowerneck -0.938425 0.196229 -3.84823
upperneck 9.08375 -0.0981041 6.53535
head 3.12308 0.0508858 2.84462
rclavicle 2.44505e-014 2.8625e-014
rhumerus -39.4505 44.0663 -109.673
rradius 99.0435
rwrist -28.6872
rhand 20.9383 -50.0172
rfingers 7.12502
rthumb 45.4082 -73.3541
lclavicle 2.44505e-014 2.8625e-014
lhumerus -38.7807 -39.7336 67.5137
lradius 119.843
lwrist 9.0591
lhand -22.4129 -35.531
lfingers 7.12502
lthumb 4.01008 -5.58901
rfemur -43.4293 5.85254 22.1037
rtibia 30.8205
rfoot 20.7328 5.57894
rtoes -23.6523
lfemur -36.4731 3.14275 -30.5345
ltibia 42.4078
lfoot 28.7312 19.5972
ltoes -35.153
185
root 9.82973 21.8068 9.18353 21.9812 23.325 365.44
lowerback -27.2683 -5.47998 -5.43113
upperback -5.37765 -5.74386 2.57536
thorax 9.83065 -2.85515 3.98965
lowerneck -1.07522 0.110154 -3.52837
upperneck 8.97917 -0.225072 6.52985
head 3.11769 -0.00281088 2.7788
rclavicle 5.48646e-014 3.97569e-015
rhumerus -38.7521 43.17 -109.415
rradius 97.8614
rwrist -27.8497
rhand 20.1896 -50.1673
rfingers 7.12502
rthumb 44.7116 -73.7795
lclavicle 5.48646e-014 3.97569e-015
lhumerus -38.8395 -38.7436 64.4325
lradius 120.13
lwrist 10.2878
lhand -22.0186 -34.7517
lfingers 7.12502
lthumb 4.39083 -4.81721
rfemur -42.8749 6.40434 22.1076
rtibia 30.1791
rfoot 21.2595 4.54488
rtoes -20.7681
lfemur -36.7859 3.83817 -29.8853
ltibia 43.1796
lfoot 28.1587 21.5987
ltoes -30.6119
186
root 9.8701 21.9905 9.12556 22.333 18.2839 366.033
lowerback -27.6929 -5.20432 -5.47958
upperback -5.0191 -5.38339 2.63033
thorax 10.4221 -2.71731 4.18141
lowerneck -1.2402 0.0291893 -3.35006
upperneck 8.90172 -0.342066 6.54524
head 3.12766 -0.0550109 2.74776
rclavicle 2.33572e-014 -2.78299e-014
rhumerus -38.0509 42.3611 -108.909
rradius 96.6289
rwrist -26.5857
rhand 19.421 -50.3573
rfingers 7.12502
rthumb 43.9953 -74.242
lclavicle 2.33572e-014 -2.78299e-014
lhumerus -38.6174 -37.8646 61.3823
lradius 120.191
lwrist 11.8268
lhand -21.9821 -33.6253
lfingers 7.12502
lthumb 4.42607 -3.69159
rfemur -43.275 6.09983 21.9115
rtibia 29.5021
rfoot 22.1812 4.93195
rtoes -23.4138
lfemur -37.9697 3.56655 -29.4652
ltibia 43.897
lfoot 27.332 21.6662
ltoes -29.6898
187
root 9.91784 22.1728 9.07434 22.3622 13.59 366.696
lowerback -27.6402 -5.11501 -5.56811
upperback -4.6081 -5.30178 2.85863
thorax 10.8895 -2.71857 4.51314
lowerneck -1.52468 0.0146134 -3.58337
upperneck 8.90274 -0.356543 6.60252
head 3.18582 -0.0662142 2.81384
rclavicle -1.37721e-014 -1.43125e-014
rhumerus -37.3565 41.9965 -108.165
rradius 95.2119
rwrist -25.2827
rhand 18.5109 -50.3743
rfingers 7.12502
rthumb 43.1455 -74.5687
lclavicle -1.37721e-014 -1.43125e-014
lhumerus -38.8599 -36.5986 58.7952
lradius 120.181
lwrist 13.6777
lhand -21.8316 -33.558
lfingers 7.12502
lthumb 4.57134 -3.6273
rfemur -43.2073 5.43756 21.8153
rtibia 28.7758
rfoot 23.1278 5.24358
rtoes -28.1778
lfemur -38.5898 2.92348 -28.8674
ltibia 44.2176
lfoot 27.2183 21.2368
ltoes -31.0034
188
root 9.973 22.3455 9.04258 22.6523 9.03006 367.226
lowerback -28.0533 -4.99863 -5.44758
upperback -4.29437 -5.20558 3.01147
thorax 11.4571 -2.6992 4.62947
lowerneck -1.58043 0.0222525 -3.71566
upperneck 8.91951 -0.345799 6.60998
head 3.20294 -0.0663829 2.8424
rclavicle 9.93923e-016 0
rhumerus -36.9383 41.3198 -107.689
rradius 93.8259
rwrist -23.7621
rhand 17.5188 -49.9574
rfingers 7.12502
rthumb 42.217 -74.4743
lclavicle 9.93923e-016 0
lhumerus -39.4676 -35.3198 56.1722
lradius 120.18
lwrist 15.3949
lhand -21.4003 -33.2775
lfingers 7.12502
lthumb 4.98787 -3.35618
rfemur -43.3345 4.79546 21.9171
rtibia 28.0503
rfoot 23.7296 5.14581
rtoes -32.7037
lfemur -39.4234 2.17775 -28.0845
ltibia 44.5315
lfoot 27.3997 20.5286
ltoes -31.1927
189
root 10.0086 22.51 8.98876 22.8778 3.98747 367.743
lowerback -28.0398 -4.70275 -5.63514
upperback -4.15714 -4.79138 3.04357
thorax 11.5716 -2.53194 4.93457
lowerneck -1.45337 -0.0197409 -3.64086
upperneck 8.95592 -0.413934 6.58895
head 3.19436 -0.102276 2.81821
rclavicle 1.69464e-014 -6.36111e-015
rhumerus -36.6765 40.4702 -107.338
rradius 92.4816
rwrist -22.3291
rhand 15.9318 -49.4526
rfingers 7.12502
rthumb 40.728 -74.4548
lclavicle 1.69464e-014 -6.36111e-015
lhumerus -40.0687 -34.304 53.4169
lradius 120.036
lwrist 16.423
lhand -21.5023 -31.958
lfingers 7.12502
lthumb 4.88933 -2.03445
rfemur -43.8176 5.21184 21.5725
rtibia 27.7535
rfoot 22.4836 5.04336
rtoes -33.4377
lfemur -40.5924 1.77896 -27.1381
ltibia 45.4348
lfoot 27.2324 19.8516
ltoes -30.6431
190
root 10.0673 22.6562 8.95187 23.1906 -0.580457 368.149
lowerback -28.3461 -4.40752 -5.46424
upperback -4.05352 -4.46255 3.0595
thorax 11.793 -2.38729 4.97071
lowerneck -1.48012 -0.112996 -3.51252
upperneck 9.08255 -0.553556 6.55916
head 3.24961 -0.168843 2.78229
rclavicle 1.12313e-014 -3.97569e-014
rhumerus -36.3392 39.5918 -106.719
rradius 91.0589
rwrist -20.9546
rhand 14.6379 -49.3221
rfingers 7.12502
rthumb 39.5107 -74.6939
lclavicle 1.12313e-014 -3.97569e-014
lhumerus -40.5494 -33.6522 50.8342
lradius 119.856
lwrist 16.9444
lhand -21.9758 -31.4469
lfingers 7.12502
lthumb 4.43218 -1.51324
rfemur -44.13 4.78746 21.7481
rtibia 27.2597
rfoot 21.5233 4.91622
rtoes -33.2206
lfemur -41.7085 0.747602 -25.9986
ltibia 46.3977
lfoot 26.5651 19.0518
ltoes -32.9294
191
root 10.1155 22.7936 8.92783 23.3451 -5.22006 368.758
lowerback -28.9949 -4.20809 -5.81605
upperback -3.43845 -4.08205 3.2762
thorax 12.0957 -2.21168 5.15272
lowerneck -1.00374 0.0229015 -3.61666
upperneck 8.862 -0.374194 6.59778
head 3.07438 -0.0936459 2.81089
rclavicle -8.84592e-015 3.18055e-015
rhumerus -35.7751 38.5216 -105.666
rradius 89.5433
rwrist -18.958
rhand 15.6756 -49.5666
rfingers 7.12502
rthumb 40.4872 -74.6437
lclavicle -8.84592e-015 3.18055e-015
lhumerus -40.6395 -33.0726 48.2935
lradius 119.604
lwrist 16.8533
lhand -22.1506 -31.9596
lfingers 7.12502
lthumb 4.26336 -2.02255
rfemur -44.2315 4.26263 21.826
rtibia 26.639
rfoot 20.5282 4.74274
rtoes -36.497
lfemur -42.4765 -0.279563 -24.9492
ltibia 47.0341
lfoot 26.0548 18.7891
ltoes -36.2001
